<mxfile host="app.diagrams.net" modified="2022-05-13T08:52:45.737Z" agent="5.0 (Windows NT 10.0; Win64; x64) AppleWebKit/537.36 (KHTML, like Gecko) Chrome/101.0.4951.54 Safari/537.36" etag="mHzTI-PkKds0CkA06UpC" version="18.0.3" type="github">
  <diagram id="RLwVpZUf2fAgmZCk6YEO" name="Page-1">
    <mxGraphModel dx="1865" dy="539" grid="1" gridSize="10" guides="1" tooltips="1" connect="1" arrows="1" fold="1" page="1" pageScale="1" pageWidth="827" pageHeight="1169" math="0" shadow="0">
      <root>
        <mxCell id="0" />
        <mxCell id="1" parent="0" />
        <mxCell id="9AYHVKEbUfJX8SVYpa8s-1" style="edgeStyle=orthogonalEdgeStyle;rounded=0;orthogonalLoop=1;jettySize=auto;html=1;exitX=0.5;exitY=1;exitDx=0;exitDy=0;" edge="1" parent="1" source="9AYHVKEbUfJX8SVYpa8s-3" target="9AYHVKEbUfJX8SVYpa8s-7">
          <mxGeometry relative="1" as="geometry" />
        </mxCell>
        <mxCell id="9AYHVKEbUfJX8SVYpa8s-2" value="" style="edgeStyle=orthogonalEdgeStyle;rounded=0;orthogonalLoop=1;jettySize=auto;html=1;entryX=0.5;entryY=0;entryDx=0;entryDy=0;" edge="1" parent="1" source="9AYHVKEbUfJX8SVYpa8s-3" target="9AYHVKEbUfJX8SVYpa8s-9">
          <mxGeometry relative="1" as="geometry">
            <Array as="points">
              <mxPoint x="220" y="140" />
              <mxPoint x="410" y="140" />
            </Array>
          </mxGeometry>
        </mxCell>
        <mxCell id="9AYHVKEbUfJX8SVYpa8s-3" value="选择操作类型" style="rounded=1;whiteSpace=wrap;html=1;fontSize=12;glass=0;strokeWidth=1;shadow=0;" vertex="1" parent="1">
          <mxGeometry x="160" y="80" width="120" height="40" as="geometry" />
        </mxCell>
        <mxCell id="9AYHVKEbUfJX8SVYpa8s-4" style="edgeStyle=orthogonalEdgeStyle;rounded=0;orthogonalLoop=1;jettySize=auto;html=1;exitX=0.5;exitY=1;exitDx=0;exitDy=0;exitPerimeter=0;" edge="1" parent="1" source="9AYHVKEbUfJX8SVYpa8s-5" target="9AYHVKEbUfJX8SVYpa8s-3">
          <mxGeometry relative="1" as="geometry" />
        </mxCell>
        <mxCell id="9AYHVKEbUfJX8SVYpa8s-5" value="开始" style="strokeWidth=1;html=1;shape=mxgraph.flowchart.terminator;whiteSpace=wrap;" vertex="1" parent="1">
          <mxGeometry x="170" y="10" width="100" height="40" as="geometry" />
        </mxCell>
        <mxCell id="9AYHVKEbUfJX8SVYpa8s-56" value="" style="edgeStyle=orthogonalEdgeStyle;rounded=0;orthogonalLoop=1;jettySize=auto;html=1;" edge="1" parent="1" source="9AYHVKEbUfJX8SVYpa8s-7" target="9AYHVKEbUfJX8SVYpa8s-55">
          <mxGeometry relative="1" as="geometry" />
        </mxCell>
        <mxCell id="9AYHVKEbUfJX8SVYpa8s-7" value="档案授权管理" style="rounded=1;whiteSpace=wrap;html=1;fontSize=12;glass=0;strokeWidth=1;shadow=0;" vertex="1" parent="1">
          <mxGeometry x="-20" y="160" width="120" height="40" as="geometry" />
        </mxCell>
        <mxCell id="9AYHVKEbUfJX8SVYpa8s-8" style="edgeStyle=orthogonalEdgeStyle;rounded=0;orthogonalLoop=1;jettySize=auto;html=1;exitX=0.5;exitY=1;exitDx=0;exitDy=0;entryX=0.5;entryY=0;entryDx=0;entryDy=0;" edge="1" parent="1" source="9AYHVKEbUfJX8SVYpa8s-9" target="9AYHVKEbUfJX8SVYpa8s-21">
          <mxGeometry relative="1" as="geometry" />
        </mxCell>
        <mxCell id="9AYHVKEbUfJX8SVYpa8s-9" value="档案信息管理" style="rounded=1;whiteSpace=wrap;html=1;fontSize=12;glass=0;strokeWidth=1;shadow=0;" vertex="1" parent="1">
          <mxGeometry x="350" y="170" width="120" height="40" as="geometry" />
        </mxCell>
        <mxCell id="9AYHVKEbUfJX8SVYpa8s-36" value="" style="edgeStyle=orthogonalEdgeStyle;rounded=0;orthogonalLoop=1;jettySize=auto;html=1;exitX=0.5;exitY=1;exitDx=0;exitDy=0;" edge="1" parent="1" source="9AYHVKEbUfJX8SVYpa8s-21" target="9AYHVKEbUfJX8SVYpa8s-35">
          <mxGeometry relative="1" as="geometry" />
        </mxCell>
        <mxCell id="9AYHVKEbUfJX8SVYpa8s-41" value="" style="edgeStyle=orthogonalEdgeStyle;rounded=0;orthogonalLoop=1;jettySize=auto;html=1;exitX=0.5;exitY=1;exitDx=0;exitDy=0;" edge="1" parent="1" source="9AYHVKEbUfJX8SVYpa8s-21" target="9AYHVKEbUfJX8SVYpa8s-40">
          <mxGeometry relative="1" as="geometry" />
        </mxCell>
        <mxCell id="9AYHVKEbUfJX8SVYpa8s-43" value="" style="edgeStyle=orthogonalEdgeStyle;rounded=0;orthogonalLoop=1;jettySize=auto;html=1;" edge="1" parent="1" source="9AYHVKEbUfJX8SVYpa8s-21" target="9AYHVKEbUfJX8SVYpa8s-42">
          <mxGeometry relative="1" as="geometry" />
        </mxCell>
        <mxCell id="9AYHVKEbUfJX8SVYpa8s-21" value="浏览所有档案记录" style="rounded=1;whiteSpace=wrap;html=1;fontSize=12;glass=0;strokeWidth=1;shadow=0;" vertex="1" parent="1">
          <mxGeometry x="350" y="240" width="120" height="40" as="geometry" />
        </mxCell>
        <mxCell id="9AYHVKEbUfJX8SVYpa8s-52" value="" style="edgeStyle=orthogonalEdgeStyle;rounded=0;orthogonalLoop=1;jettySize=auto;html=1;" edge="1" parent="1" source="9AYHVKEbUfJX8SVYpa8s-35" target="9AYHVKEbUfJX8SVYpa8s-51">
          <mxGeometry relative="1" as="geometry" />
        </mxCell>
        <mxCell id="9AYHVKEbUfJX8SVYpa8s-35" value="查看档案信息" style="rounded=1;whiteSpace=wrap;html=1;fontSize=12;glass=0;strokeWidth=1;shadow=0;" vertex="1" parent="1">
          <mxGeometry x="210" y="340" width="120" height="40" as="geometry" />
        </mxCell>
        <mxCell id="9AYHVKEbUfJX8SVYpa8s-65" value="" style="edgeStyle=orthogonalEdgeStyle;rounded=0;orthogonalLoop=1;jettySize=auto;html=1;" edge="1" parent="1" source="9AYHVKEbUfJX8SVYpa8s-40" target="9AYHVKEbUfJX8SVYpa8s-64">
          <mxGeometry relative="1" as="geometry" />
        </mxCell>
        <mxCell id="9AYHVKEbUfJX8SVYpa8s-40" value="查看档案历史版本" style="rounded=1;whiteSpace=wrap;html=1;fontSize=12;glass=0;strokeWidth=1;shadow=0;" vertex="1" parent="1">
          <mxGeometry x="490" y="340" width="120" height="40" as="geometry" />
        </mxCell>
        <mxCell id="9AYHVKEbUfJX8SVYpa8s-46" value="" style="edgeStyle=orthogonalEdgeStyle;rounded=0;orthogonalLoop=1;jettySize=auto;html=1;" edge="1" parent="1" source="9AYHVKEbUfJX8SVYpa8s-42" target="9AYHVKEbUfJX8SVYpa8s-45">
          <mxGeometry relative="1" as="geometry" />
        </mxCell>
        <mxCell id="9AYHVKEbUfJX8SVYpa8s-42" value="添加档案" style="rounded=1;whiteSpace=wrap;html=1;fontSize=12;glass=0;strokeWidth=1;shadow=0;" vertex="1" parent="1">
          <mxGeometry x="350" y="340" width="120" height="40" as="geometry" />
        </mxCell>
        <mxCell id="9AYHVKEbUfJX8SVYpa8s-48" value="" style="edgeStyle=orthogonalEdgeStyle;rounded=0;orthogonalLoop=1;jettySize=auto;html=1;" edge="1" parent="1" source="9AYHVKEbUfJX8SVYpa8s-45" target="9AYHVKEbUfJX8SVYpa8s-47">
          <mxGeometry relative="1" as="geometry" />
        </mxCell>
        <mxCell id="9AYHVKEbUfJX8SVYpa8s-45" value="输入档案信息" style="rounded=1;whiteSpace=wrap;html=1;fontSize=12;glass=0;strokeWidth=1;shadow=0;" vertex="1" parent="1">
          <mxGeometry x="350" y="410" width="120" height="40" as="geometry" />
        </mxCell>
        <mxCell id="9AYHVKEbUfJX8SVYpa8s-50" value="" style="edgeStyle=orthogonalEdgeStyle;rounded=0;orthogonalLoop=1;jettySize=auto;html=1;" edge="1" parent="1" source="9AYHVKEbUfJX8SVYpa8s-47" target="9AYHVKEbUfJX8SVYpa8s-49">
          <mxGeometry relative="1" as="geometry" />
        </mxCell>
        <mxCell id="9AYHVKEbUfJX8SVYpa8s-47" value="上传文件" style="rounded=1;whiteSpace=wrap;html=1;fontSize=12;glass=0;strokeWidth=1;shadow=0;" vertex="1" parent="1">
          <mxGeometry x="350" y="480" width="120" height="40" as="geometry" />
        </mxCell>
        <mxCell id="9AYHVKEbUfJX8SVYpa8s-49" value="上传档案信息" style="rounded=1;whiteSpace=wrap;html=1;fontSize=12;glass=0;strokeWidth=1;shadow=0;" vertex="1" parent="1">
          <mxGeometry x="350" y="550" width="120" height="40" as="geometry" />
        </mxCell>
        <mxCell id="9AYHVKEbUfJX8SVYpa8s-54" value="" style="edgeStyle=orthogonalEdgeStyle;rounded=0;orthogonalLoop=1;jettySize=auto;html=1;" edge="1" parent="1" source="9AYHVKEbUfJX8SVYpa8s-51" target="9AYHVKEbUfJX8SVYpa8s-53">
          <mxGeometry relative="1" as="geometry" />
        </mxCell>
        <mxCell id="9AYHVKEbUfJX8SVYpa8s-51" value="修改档案信息" style="rounded=1;whiteSpace=wrap;html=1;fontSize=12;glass=0;strokeWidth=1;shadow=0;" vertex="1" parent="1">
          <mxGeometry x="210" y="410" width="120" height="40" as="geometry" />
        </mxCell>
        <mxCell id="9AYHVKEbUfJX8SVYpa8s-53" value="更新档案信息" style="rounded=1;whiteSpace=wrap;html=1;fontSize=12;glass=0;strokeWidth=1;shadow=0;" vertex="1" parent="1">
          <mxGeometry x="210" y="480" width="120" height="40" as="geometry" />
        </mxCell>
        <mxCell id="9AYHVKEbUfJX8SVYpa8s-58" value="" style="edgeStyle=orthogonalEdgeStyle;rounded=0;orthogonalLoop=1;jettySize=auto;html=1;" edge="1" parent="1" source="9AYHVKEbUfJX8SVYpa8s-55" target="9AYHVKEbUfJX8SVYpa8s-57">
          <mxGeometry relative="1" as="geometry" />
        </mxCell>
        <mxCell id="9AYHVKEbUfJX8SVYpa8s-55" value="浏览档案授权记录" style="rounded=1;whiteSpace=wrap;html=1;fontSize=12;glass=0;strokeWidth=1;shadow=0;" vertex="1" parent="1">
          <mxGeometry x="-20" y="250" width="120" height="40" as="geometry" />
        </mxCell>
        <mxCell id="9AYHVKEbUfJX8SVYpa8s-60" value="" style="edgeStyle=orthogonalEdgeStyle;rounded=0;orthogonalLoop=1;jettySize=auto;html=1;exitX=0.5;exitY=1;exitDx=0;exitDy=0;" edge="1" parent="1" source="9AYHVKEbUfJX8SVYpa8s-57" target="9AYHVKEbUfJX8SVYpa8s-59">
          <mxGeometry relative="1" as="geometry">
            <mxPoint x="50" y="430" as="sourcePoint" />
          </mxGeometry>
        </mxCell>
        <mxCell id="9AYHVKEbUfJX8SVYpa8s-61" style="edgeStyle=orthogonalEdgeStyle;rounded=0;orthogonalLoop=1;jettySize=auto;html=1;exitX=1;exitY=0.5;exitDx=0;exitDy=0;entryX=0;entryY=0.5;entryDx=0;entryDy=0;" edge="1" parent="1" source="9AYHVKEbUfJX8SVYpa8s-57" target="9AYHVKEbUfJX8SVYpa8s-35">
          <mxGeometry relative="1" as="geometry" />
        </mxCell>
        <mxCell id="9AYHVKEbUfJX8SVYpa8s-63" value="" style="edgeStyle=orthogonalEdgeStyle;rounded=0;orthogonalLoop=1;jettySize=auto;html=1;" edge="1" parent="1" target="9AYHVKEbUfJX8SVYpa8s-62">
          <mxGeometry relative="1" as="geometry">
            <mxPoint x="40" y="380" as="sourcePoint" />
            <Array as="points">
              <mxPoint x="40" y="430" />
              <mxPoint x="120" y="430" />
            </Array>
          </mxGeometry>
        </mxCell>
        <mxCell id="9AYHVKEbUfJX8SVYpa8s-57" value="查看现有档案所属" style="rounded=1;whiteSpace=wrap;html=1;fontSize=12;glass=0;strokeWidth=1;shadow=0;" vertex="1" parent="1">
          <mxGeometry x="-20" y="340" width="120" height="40" as="geometry" />
        </mxCell>
        <mxCell id="9AYHVKEbUfJX8SVYpa8s-59" value="查看历史授权信息" style="rounded=1;whiteSpace=wrap;html=1;fontSize=12;glass=0;strokeWidth=1;shadow=0;" vertex="1" parent="1">
          <mxGeometry x="-100" y="480" width="120" height="40" as="geometry" />
        </mxCell>
        <mxCell id="9AYHVKEbUfJX8SVYpa8s-62" value="修改档案授权信息" style="rounded=1;whiteSpace=wrap;html=1;fontSize=12;glass=0;strokeWidth=1;shadow=0;" vertex="1" parent="1">
          <mxGeometry x="60" y="480" width="120" height="40" as="geometry" />
        </mxCell>
        <mxCell id="9AYHVKEbUfJX8SVYpa8s-64" value="下载档案源文件" style="rounded=1;whiteSpace=wrap;html=1;fontSize=12;glass=0;strokeWidth=1;shadow=0;" vertex="1" parent="1">
          <mxGeometry x="490" y="410" width="120" height="40" as="geometry" />
        </mxCell>
      </root>
    </mxGraphModel>
  </diagram>
</mxfile>
